PathFileType	4	(X/Y/Z)	D:\TRACE\v60_Jaco2_6-2-23\BothDRS_Motion3_9-platform.trc
DataRate	CameraRate	NumFrames	NumMarkers	Units	OrigDataRate	OrigDataStartFrame	OrigNumFrames
100.00	100.00	      72	5	mm	100.00	876	      7000
Frame#	Time	Left_Front			Right_Front			Left_Aft			Right_Aft			Post			
		X1	Y1	Z1	X2	Y2	Z2	X3	Y3	Z3	X4	Y4	Z4	X5	Y5	Z5	

876	8.750	-768.62543	-27.53940	-658.63184	802.25159	-28.85039	-636.04193	-699.73328	36.91162	476.14191	714.80969	38.51412	579.00812	26.92499	1250.61621	-1042.85535	
877	8.760	-768.59967	-27.51700	-658.62775	802.21509	-28.75352	-636.04425	-699.64136	36.62923	476.27509	714.80237	38.43892	579.03198	26.88266	1250.77100	-1042.55920	
878	8.770	-768.79163	-27.24327	-658.51312	802.10602	-28.62773	-635.98413	-699.60498	36.55529	476.32214	714.75238	38.31251	579.05792	26.86406	1250.92554	-1042.20264	
879	8.780	-768.81714	-27.03775	-658.52582	802.06354	-28.56387	-636.05304	-699.56592	36.47152	476.38626	714.65875	38.11748	579.27271	27.05574	1251.08435	-1041.97339	
880	8.790	-768.67346	-27.05038	-658.48004	802.17023	-28.37029	-635.94867	-699.47491	36.35476	476.34357	714.84436	38.12054	579.31641	27.11225	1251.26440	-1041.84875	
881	8.800	-768.79211	-26.76850	-658.40033	802.13348	-28.17825	-635.99872	-699.47272	36.33859	476.39993	714.95197	38.15059	579.21582	27.10588	1251.42810	-1041.66809	
882	8.810	-768.71838	-26.61125	-658.34137	802.12958	-28.13078	-635.98804	-699.48730	36.22409	476.44818	715.07605	38.01073	579.26740	27.20025	1251.59546	-1041.48413	
883	8.820	-768.66644	-26.46372	-658.21582	802.07745	-28.07691	-635.98877	-699.46808	36.08673	476.53107	715.35663	38.10268	579.46808	27.19020	1251.97217	-1041.14771	
884	8.830	-768.61591	-26.33216	-658.10370	802.07172	-27.84275	-635.98926	-699.46338	35.94788	476.56766	715.07617	37.69714	579.51355	27.09373	1252.41077	-1040.90552	
885	8.840	-768.67682	-26.13923	-658.06323	802.09747	-27.54911	-635.88202	-699.42621	35.82877	476.62329	715.09039	37.50962	579.60321	27.16619	1252.77344	-1040.71094	
886	8.850	-768.77527	-26.27751	-658.18945	802.17236	-27.40703	-635.75854	-699.40363	35.74311	476.67303	714.96906	37.34727	579.59558	27.16365	1252.98718	-1040.36011	
887	8.860	-768.84375	-26.02521	-658.01929	802.09979	-27.29688	-635.79095	-699.41821	35.69189	476.69388	714.98645	37.20007	579.63275	26.87013	1253.24365	-1039.89282	
888	8.870	-768.74268	-25.93321	-657.71802	801.98273	-27.11890	-635.80103	-699.37317	35.51903	476.70828	715.08533	37.16916	579.62451	27.02197	1253.40771	-1039.27466	
889	8.880	-768.56775	-25.93011	-657.51123	801.92963	-26.92450	-635.76898	-699.37384	35.32038	476.94489	715.00317	36.87263	579.58679	27.00123	1253.67456	-1038.51147	
890	8.890	-768.48389	-25.66229	-657.58435	802.13611	-26.67977	-635.59540	-699.34070	35.12597	477.06158	714.95105	36.74569	579.62970	26.71410	1253.72864	-1037.85010	
891	8.900	-768.56335	-25.07986	-657.91254	802.31580	-26.23900	-635.56287	-699.28137	34.96074	477.12735	714.86700	36.59963	579.66809	27.05784	1254.38110	-1037.63977	
892	8.910	-768.65637	-24.82907	-657.87366	802.05310	-26.04539	-635.66254	-699.38019	34.75393	477.29669	714.63660	36.25901	579.77606	26.82935	1254.89514	-1037.16174	
893	8.920	-768.88757	-24.36423	-657.66614	801.87311	-25.90410	-635.55426	-699.55170	34.53640	477.29596	714.44330	35.92374	579.91235	26.55841	1255.39648	-1036.54492	
894	8.930	-768.89990	-24.28358	-657.70013	801.64734	-25.79076	-635.49341	-699.65674	34.38361	477.28253	714.43939	35.78373	579.99841	26.23171	1255.58521	-1035.95264	
895	8.940	-769.04205	-23.80756	-657.61877	801.55341	-25.70110	-635.51489	-699.77887	34.17339	477.31696	714.42975	35.69940	580.02026	26.37592	1255.92151	-1035.79956	
896	8.950	-769.11383	-23.67441	-657.56586	801.64471	-25.20932	-635.41376	-699.88568	34.13758	477.37003	714.39624	35.59513	580.06079	26.57648	1256.31555	-1035.15381	
897	8.960	-769.15125	-23.50497	-657.56158	801.63599	-25.01816	-635.31104	-699.93634	34.01740	477.34430	714.31335	35.44772	580.13232	26.46576	1256.64954	-1034.59216	
898	8.970	-769.27075	-23.27053	-657.49280	801.56934	-24.91223	-635.33099	-700.01703	33.95743	477.37766	714.30194	35.32277	580.22559	26.38133	1256.92493	-1034.11072	
899	8.980	-769.29132	-23.07755	-657.53778	801.53082	-24.77323	-635.26776	-700.11816	33.88580	477.43439	714.27521	35.10248	580.29834	26.44836	1257.26599	-1033.73132	
900	8.990	-769.46307	-22.77193	-657.58887	801.14246	-24.23622	-634.80115	-700.40228	34.14967	477.32449	714.34149	34.95738	580.41852	26.31508	1257.71228	-1033.35168	
901	9.000	-769.63971	-22.56238	-657.64233	800.98224	-24.08154	-634.86218	-700.51086	34.02892	477.40170	714.04321	34.90388	580.55109	26.26181	1258.12024	-1032.92847	
902	9.010	-769.70203	-22.39672	-657.55310	800.95691	-23.93615	-634.82751	-700.57367	33.93084	477.44366	714.20844	34.58512	580.51721	25.83534	1258.59216	-1032.59912	
903	9.020	-769.62946	-22.13960	-657.49915	800.81146	-23.66656	-634.80841	-700.33856	33.58722	477.59753	714.04974	34.20080	580.54517	25.67849	1258.94373	-1032.24060	
904	9.030	-769.83478	-21.66681	-657.42767	800.82471	-23.26995	-634.66779	-700.33087	33.27753	477.72510	713.84253	33.95164	580.57715	25.82373	1259.27527	-1031.85144	
905	9.040	-769.90607	-21.26928	-657.38739	800.80725	-22.96036	-634.54968	-700.50006	32.99532	477.77924	713.57538	33.58993	580.56909	25.77908	1259.71045	-1031.35742	
906	9.050	-769.94135	-21.06076	-657.38611	800.65149	-22.73253	-634.64276	-700.55640	32.70288	477.92279	713.51575	33.36435	580.65039	25.92351	1260.47266	-1030.43311	
907	9.060	-769.96423	-20.84691	-657.30536	800.63629	-22.36512	-634.63208	-700.59833	32.54995	477.99548	713.51270	33.20587	580.81445	25.83302	1260.96826	-1029.63574	
908	9.070	-769.84399	-20.58648	-657.21216	800.65802	-22.09499	-634.57037	-700.51868	32.27852	478.01904	713.51740	33.13171	580.91711	25.79744	1261.19446	-1029.10632	
909	9.080	-770.13171	-20.54777	-657.35272	800.58032	-21.91040	-634.49591	-700.79260	32.26005	477.99780	713.46350	33.00233	581.03632	25.44060	1261.43494	-1028.45056	
910	9.090	-770.17322	-20.28156	-657.55286	800.52228	-21.75912	-634.40253	-700.83722	32.14531	478.00571	713.46112	32.87807	581.10266	25.24536	1261.66785	-1027.49634	
911	9.100	-770.31055	-19.83791	-657.49573	800.31494	-21.54787	-634.38489	-700.94867	32.07597	478.06189	713.43408	32.65847	581.14032	25.74449	1262.20386	-1026.80396	
912	9.110	-770.48022	-19.56098	-657.38379	800.19653	-21.30699	-634.39282	-701.00323	31.98053	478.11740	713.50873	32.44897	581.23608	25.74051	1262.59058	-1026.03992	
913	9.120	-770.43292	-19.31051	-657.20007	800.20282	-21.05295	-634.37299	-701.00134	31.81030	478.16611	713.58624	32.32531	581.31891	25.43194	1263.01660	-1025.65002	
914	9.130	-770.42816	-19.08958	-657.10468	800.22900	-20.72648	-634.34778	-701.00806	31.69413	478.22479	713.60608	32.12739	581.40295	25.37121	1263.42664	-1025.25415	
915	9.140	-770.15900	-18.66739	-656.77820	800.27966	-20.49007	-634.28638	-701.03424	31.53298	478.27866	713.42316	31.82881	581.39850	25.08855	1263.73914	-1024.79565	
916	9.150	-770.48932	-18.33641	-657.02539	800.23145	-20.26416	-634.20630	-700.90271	31.27121	478.10172	713.18787	31.50724	581.42267	25.29720	1264.21423	-1024.91724	
917	9.160	-770.52539	-18.04375	-656.82520	800.22424	-20.11295	-634.12567	-700.85632	30.80102	478.36417	713.17963	31.30631	581.49915	25.28162	1264.62476	-1024.57104	
918	9.170	-770.45746	-17.91446	-656.74530	800.28540	-19.86180	-634.01202	-700.79840	30.54652	478.30554	713.15991	31.02732	581.68463	25.24407	1264.79431	-1024.28491	
919	9.180	-770.35913	-17.76130	-656.63831	800.29260	-19.53580	-634.02722	-700.98065	30.40496	478.75082	713.28235	30.85522	581.72711	25.33366	1265.29944	-1023.72235	
920	9.190	-770.31287	-17.83043	-656.75366	800.51361	-19.37347	-634.40002	-700.90918	30.30276	478.73898	713.24158	30.74695	581.76093	25.35191	1265.73425	-1023.18256	
921	9.200	-770.30371	-17.59669	-656.74072	800.23492	-19.04862	-634.00745	-700.86993	30.15606	478.85974	713.25476	30.58775	581.76880	25.15574	1265.90894	-1022.41284	
922	9.210	-770.29108	-17.28828	-656.52521	800.21295	-18.80045	-633.96033	-700.82550	29.93566	478.93552	713.32538	30.46609	581.83069	25.41138	1266.36023	-1022.18500	
923	9.220	-770.34161	-17.10661	-656.49396	800.20105	-18.59171	-633.92969	-700.51715	29.56180	479.16949	713.45691	30.31464	581.90814	25.28992	1266.58618	-1021.50946	
924	9.230	-770.32947	-17.03459	-656.43597	800.16943	-18.39558	-633.93903	-700.49377	29.37251	479.28641	713.29291	30.23845	581.99884	25.11610	1267.00281	-1020.74695	
925	9.240	-770.33026	-16.85630	-656.36060	800.25610	-18.09207	-633.87524	-700.42078	29.19551	479.28067	713.48285	30.11826	582.00098	25.30142	1267.29358	-1020.21283	
926	9.250	-770.30420	-16.56561	-656.37762	800.28528	-17.82316	-633.81390	-700.39087	29.15826	479.39304	713.48755	29.96923	582.05383	25.46004	1267.65503	-1019.62347	
927	9.260	-769.90289	-16.27455	-655.83380	800.32690	-17.72551	-633.73187	-700.35608	29.03621	479.48148	713.47418	29.79505	582.09113	25.43674	1268.05786	-1018.97308	
928	9.270	-770.02698	-15.88866	-656.00507	800.25397	-17.63162	-633.69763	-700.43451	28.95984	479.51099	713.43707	29.54432	582.17255	25.36856	1268.39612	-1018.61774	
929	9.280	-769.96100	-15.81080	-655.98444	800.24927	-17.31168	-633.70935	-700.44452	28.94892	479.49637	713.30365	29.32866	582.23114	25.53774	1268.64417	-1018.13477	
930	9.290	-770.33240	-15.39094	-656.40070	800.34058	-17.22742	-633.64990	-700.51184	28.89874	479.46945	712.34930	28.42424	582.25409	25.33538	1268.96033	-1017.89648	
931	9.300	-770.21985	-15.18933	-656.39319	800.73511	-17.20866	-633.95331	-700.60754	28.83201	479.47375	712.50677	28.23998	582.27637	25.44471	1269.15381	-1017.82825	
932	9.310	-770.05878	-15.07393	-656.29706	800.81329	-16.77092	-633.54254	-700.53479	28.80876	479.48724	713.54138	28.74787	582.55237	25.58320	1269.44189	-1017.72443	
933	9.320	-769.79114	-14.98298	-656.28802	800.98151	-16.52988	-633.57507	-700.39984	28.76786	479.54703	713.70721	28.63613	582.62634	25.83203	1269.60095	-1017.45776	
934	9.330	-769.71545	-14.88566	-656.28522	801.12445	-16.45112	-633.50140	-700.21747	28.60276	479.58932	713.83374	28.52628	582.69080	26.05970	1269.79248	-1017.23035	
935	9.340	-769.67731	-14.79452	-656.20081	801.24127	-16.41998	-633.40796	-700.12836	28.43305	479.66977	713.75311	28.37737	582.71460	26.28747	1270.12378	-1017.06342	
936	9.350	-769.63318	-14.65526	-656.17596	801.32349	-16.14337	-633.33179	-699.97791	28.28907	479.72919	714.30481	28.40510	582.68475	26.38491	1270.35986	-1016.67462	
937	9.360	-769.57721	-14.53199	-656.11182	801.42181	-15.99376	-633.32788	-699.86206	28.16493	479.76410	715.00903	28.84521	582.61853	26.40398	1270.49451	-1016.27271	
938	9.370	-769.44043	-14.34883	-656.02985	801.54108	-15.86443	-633.25513	-699.65515	28.04509	479.80984	714.51910	28.24548	582.59009	26.33389	1270.73267	-1016.03973	
939	9.380	-769.16797	-14.06873	-655.94354	801.62787	-15.84548	-633.29272	-699.49274	27.93170	479.83853	714.73645	28.21756	582.66998	26.55448	1270.88391	-1015.71185	
940	9.390	-769.01416	-13.94693	-655.89307	801.79071	-15.72320	-633.25018	-699.41907	27.86683	479.87790	714.93024	28.17025	582.73260	26.57287	1271.05737	-1015.19592	
941	9.400	-768.70990	-14.02404	-655.82538	801.93988	-15.56702	-633.23187	-699.28174	27.75878	479.91565	715.13879	28.13436	582.79211	26.46360	1271.11987	-1014.65698	
942	9.410	-768.70514	-13.91514	-655.48376	802.13428	-15.46783	-633.24677	-699.09967	27.67352	479.96838	715.41534	28.01868	582.77399	27.11616	1271.53845	-1014.24365	
943	9.420	-768.34070	-13.75737	-655.34821	802.28058	-15.38013	-633.23828	-698.92480	27.62924	479.96872	715.64252	27.96124	582.70984	27.30093	1271.82349	-1013.93530	
944	9.430	-768.10718	-13.87774	-655.54211	802.62152	-15.42618	-633.59363	-698.74463	27.57244	479.96194	715.82104	27.98959	582.75049	27.42506	1272.04236	-1013.61871	
945	9.440	-767.65277	-14.00919	-655.81201	802.76294	-15.38508	-633.64276	-698.58008	27.44295	479.99637	715.92047	27.93852	582.72357	27.54309	1272.14233	-1013.54486	
946	9.450	-767.50208	-14.03623	-655.78955	802.78149	-15.15161	-633.22089	-698.35071	27.29094	480.11673	716.02332	27.87207	582.77087	27.70746	1272.15991	-1013.59668	
947	9.460	-767.36816	-13.93734	-655.81909	802.97528	-15.12523	-633.21307	-698.08502	27.26498	480.20041	716.22858	27.73308	582.79834	27.81731	1272.25964	-1013.69183	
